<svg height="448pt" viewBox="0 -16 448 448" width="448pt" xmlns="http://www.w3.org/2000/svg"><path d="m168 336h112v48h-112zm0 0"/><path d="m184 84.945312v102.109376l102.113281-51.054688zm0 0"/><path d="m88 400h272v16h-272zm0 0"/><path d="m416 32h-384v208h384zm-248 180.945312v-153.890624l153.886719 76.945312zm0 0"/><path d="m448 312v-304c0-4.417969-3.582031-8-8-8h-432c-4.417969 0-8 3.582031-8 8v304c0 4.417969 3.582031 8 8 8h432c4.417969 0 8-3.582031 8-8zm-376-16h-40v-16h40zm24 8h-16v-32h16zm320-8h-312v-16h312zm16-40h-416v-240h416zm0 0"/></svg>