<svg height="448pt" viewBox="0 -8 448 448" width="448pt" xmlns="http://www.w3.org/2000/svg"><path d="m16 432h112v-40c0-13.253906-10.746094-24-24-24h-64c-13.253906 0-24 10.746094-24 24zm0 0"/><path d="m168 432h112v-40c0-13.253906-10.746094-24-24-24h-64c-13.253906 0-24 10.746094-24 24zm0 0"/><path d="m320 432h112v-40c0-13.253906-10.746094-24-24-24h-64c-13.253906 0-24 10.746094-24 24zm0 0"/><path d="m400 320c0 13.253906-10.746094 24-24 24s-24-10.746094-24-24 10.746094-24 24-24 24 10.746094 24 24zm0 0"/><path d="m448 0h-448v304h35.390625c6.339844-14.574219 20.71875-24 36.609375-24s30.269531 9.425781 36.609375 24h78.78125c6.339844-14.574219 20.71875-24 36.609375-24s30.269531 9.425781 36.609375 24h78.78125c6.339844-14.574219 20.71875-24 36.609375-24s30.269531 9.425781 36.609375 24h35.390625zm-280 34.320312 152.320312 85.679688-152.320312 85.679688zm-112 229.679688h-40v-16h40zm24 8h-16v-32h16zm352-8h-344v-16h344zm0 0"/><path d="m184 61.679688v116.640624l103.679688-58.320312zm0 0"/><path d="m248 320c0 13.253906-10.746094 24-24 24s-24-10.746094-24-24 10.746094-24 24-24 24 10.746094 24 24zm0 0"/><path d="m96 320c0 13.253906-10.746094 24-24 24s-24-10.746094-24-24 10.746094-24 24-24 24 10.746094 24 24zm0 0"/></svg>