<svg height="448pt" viewBox="0 0 448 448.00024" width="448pt" xmlns="http://www.w3.org/2000/svg"><path d="m448 344v-32h-448v32c0 4.417969 3.582031 8 8 8h432c4.417969 0 8-3.582031 8-8zm0 0"/><path d="m168 368h112v48h-112zm0 0"/><path d="m88 432h272v16h-272zm0 0"/><path d="m232 235.929688 39.519531-16.730469c4.933594-2.097657 10.238281-3.1875 15.601563-3.199219h96.878906v-216h-112c-22.082031.0273438-39.972656 17.917969-40 40zm0 0"/><path d="m8 48c-4.417969 0-8 3.582031-8 8v240h448v-240c0-4.417969-3.582031-8-8-8h-8v216h-145.441406c-3.230469 0-6.429688.652344-9.40625 1.914062l-49.953125 21.4375-3.199219 1.351563-3.144531-1.351563-50-21.4375c-2.976563-1.265624-6.179688-1.914062-9.414063-1.914062h-145.441406v-216zm0 0"/><path d="m161.28125 216c5.398438.003906 10.742188 1.09375 15.710938 3.199219l39.007812 16.679687v-195.878906c.003906-2.191406-.191406-4.378906-.582031-6.535156-3.113281-19.335938-19.832031-33.5312502-39.417969-33.464844h-112v216zm0 0"/><path d="m32 24v224h129.441406c5.398438.007812 10.738282 1.09375 15.710938 3.199219l46.847656 20.097656 46.839844-20.097656c4.972656-2.109375 10.320312-3.195313 15.71875-3.199219h129.441406v-224h-16v208h-112.878906c-3.226563.015625-6.417969.671875-9.386719 1.9375l-53.734375 22.757812-53.289062-22.78125c-2.984376-1.265624-6.191407-1.914062-9.429688-1.914062h-113.28125v-208zm0 0"/></svg>