<svg height="448pt" viewBox="0 0 448 448" width="448pt" xmlns="http://www.w3.org/2000/svg"><path d="m176 192c0 13.253906-10.746094 24-24 24s-24-10.746094-24-24 10.746094-24 24-24 24 10.746094 24 24zm0 0"/><path d="m184 256h-64c-13.253906 0-24 10.746094-24 24v40h112v-40c0-13.253906-10.746094-24-24-24zm0 0"/><path d="m448 400h-173.695312l-23.90625 16h-53.054688l-23.742188-16h-173.601562v24c0 13.253906 10.746094 24 24 24h400c13.253906 0 24-10.746094 24-24zm0 0"/><path d="m16 384h162.480469l23.75 16h43.371093l23.863282-16h162.535156v-240.710938c-5.011719 4.273438-10.363281 8.128907-16 11.535157v213.175781h-384v-248h187.585938c-3.046876-5.046875-5.53125-10.414062-7.410157-16h-172.175781c-13.253906 0-24 10.746094-24 24zm0 0"/><path d="m250.136719 151.3125c-6.605469-4.4375-12.714844-9.574219-18.226563-15.3125h-183.910156v216h352v-188.992188c-20.21875 8.667969-42.003906 13.089844-64 12.992188h-.71875l-96 42.128906c-1.011719.4375-2.101562.667969-3.203125.671875-2.617187-.003906-5.070313-1.292969-6.5625-3.445312-1.488281-2.152344-1.832031-4.902344-.914063-7.355469zm-98.136719.6875c22.089844 0 40 17.910156 40 40s-17.910156 40-40 40-40-17.910156-40-40c.027344-22.082031 17.917969-39.972656 40-40zm72 184h-144v-56c.027344-22.082031 17.917969-39.972656 40-40h64c22.082031.027344 39.972656 17.917969 40 40zm0 0"/><path d="m448 80c0-44.113281-50.238281-80-112-80s-112 35.886719-112 80c0 23.566406 14.601562 45.878906 40.046875 61.222656 3.316406 1.996094 4.726563 6.078125 3.351563 9.699219l-17.0625 44.886719 80.0625-35.136719c1.011718-.4375 2.101562-.667969 3.203124-.671875h2.398438c61.761719 0 112-35.886719 112-80zm0 0"/></svg>