<svg height="512pt" viewBox="0 0 512 512" width="512pt" xmlns="http://www.w3.org/2000/svg"><path d="m241 197.976562 47.960938-31.976562-47.960938-31.976562zm0 0"/><path d="m497 60c8.289062 0 15-6.710938 15-15s-6.710938-15-15-15h-226v-15c0-8.289062-6.710938-15-15-15s-15 6.710938-15 15v15h-226c-8.289062 0-15 6.710938-15 15s6.710938 15 15 15h15v271h-15c-8.289062 0-15 6.710938-15 15s6.710938 15 15 15h47.519531c-.992187-4.847656-1.519531-9.863281-1.519531-15 0-41.351562 33.648438-75 75-75 24.621094 0 46.316406 12.085938 60 30.464844 13.683594-18.378906 35.378906-30.464844 60-30.464844s46.316406 12.085938 60 30.464844c13.683594-18.378906 35.378906-30.464844 60-30.464844 41.351562 0 75 33.648438 75 75 0 5.136719-.527344 10.152344-1.519531 15h47.519531c8.289062 0 15-6.710938 15-15s-6.710938-15-15-15h-15v-271zm-172.679688 118.480469-90 60c-4.652343 3.097656-10.585937 3.328125-15.394531.746093-4.878906-2.605468-7.925781-7.691406-7.925781-13.226562v-120c0-5.535156 3.046875-10.621094 7.925781-13.226562 4.847657-2.625 10.78125-2.300782 15.394531.746093l90 60c4.175782 2.78125 6.679688 7.46875 6.679688 12.480469 0 5.007812-2.503906 9.695312-6.679688 12.480469zm0 0"/><path d="m181 346c0-24.8125-20.1875-45-45-45s-45 20.1875-45 45 20.1875 45 45 45 45-20.1875 45-45zm0 0"/><path d="m301 346c0-24.8125-20.1875-45-45-45s-45 20.1875-45 45 20.1875 45 45 45 45-20.1875 45-45zm0 0"/><path d="m181 466v31c0 8.289062 6.710938 15 15 15h120c8.289062 0 15-6.710938 15-15v-31c0-41.351562-33.648438-75-75-75s-75 33.648438-75 75zm0 0"/><path d="m421 346c0-24.8125-20.1875-45-45-45s-45 20.1875-45 45 20.1875 45 45 45 45-20.1875 45-45zm0 0"/><path d="m361 466v31c0 5.285156-1.082031 10.285156-2.761719 15h77.761719c8.289062 0 15-6.710938 15-15v-31c0-41.351562-33.648438-75-75-75-13.8125 0-26.601562 4.015625-37.730469 10.558594 14.019531 17.847656 22.730469 40.042968 22.730469 64.441406zm0 0"/><path d="m61 466v31c0 8.289062 6.710938 15 15 15h77.761719c-1.679688-4.714844-2.761719-9.714844-2.761719-15v-31c0-24.398438 8.710938-46.59375 22.730469-64.441406-11.128907-6.542969-23.917969-10.558594-37.730469-10.558594-41.351562 0-75 33.648438-75 75zm0 0"/></svg>