<svg height="464pt" viewBox="-8 0 464 464" width="464pt" xmlns="http://www.w3.org/2000/svg"><path d="m80 256c0 13.253906-10.746094 24-24 24s-24-10.746094-24-24 10.746094-24 24-24 24 10.746094 24 24zm0 0"/><path d="m128 408h320v16h-320zm0 0"/><path d="m144 440h288v24h-288zm0 0"/><path d="m206.414062 240-28.4375 128h199.609376l28.4375-128zm0 0"/><path d="m127.511719 368h34.464843c0-1.152344 3.160157-16 3.160157-16h-27.59375l-44.472657-48h-53.070312c-22.082031.027344-39.9726562 17.917969-40 40v104h88v-99.433594l-13.894531-15.160156 11.789062-10.8125zm0 0"/><path d="m400 24c0-13.253906-10.746094-24-24-24h-304c-13.253906 0-24 10.746094-24 24v112c0 13.253906 10.746094 24 24 24h56v55.351562l69.191406-55.351562h178.808594c13.253906 0 24-10.746094 24-24zm-256 96h-16v-16h16zm0-32h-16v-16h16zm0-32h-16v-16h16zm176 64h-160v-16h160zm0-32h-160v-16h160zm0-32h-160v-16h160zm0 0"/></svg>